<svg version="1.1" id="Layer_1" xmlns="http://www.w3.org/2000/svg" xmlns:xlink="http://www.w3.org/1999/xlink" x="0px" y="0px"
	 width="100%" viewBox="0 0 512 512" enable-background="new 0 0 512 512" xml:space="preserve">
<path fill="#7AE5FE" opacity="1.000000" stroke="none" 
	d="
M235.000000,1.000001 
	C249.354233,1.000000 263.708466,1.000000 278.792480,1.323200 
	C286.234711,2.433963 292.987091,2.975028 299.652527,4.053202 
	C324.093048,8.006585 347.470764,15.462223 369.683685,26.363081 
	C401.295441,41.876347 428.393463,63.201424 451.472015,89.839638 
	C466.526703,107.216400 478.911102,126.240089 488.865967,146.872665 
	C491.550568,152.436783 493.338348,158.433609 495.206421,164.196167 
	C493.399200,162.837860 491.857513,161.581116 490.457245,160.182709 
	C465.912170,135.670334 441.396088,111.128891 416.823761,86.643890 
	C415.355774,85.181099 413.468140,84.139450 411.515503,82.719673 
	C407.832642,76.373634 402.535126,73.303246 395.597626,74.287064 
	C388.329193,75.317802 384.345795,80.193977 382.981567,87.247787 
	C382.101349,91.799034 381.217773,96.359421 380.633484,100.953575 
	C380.378265,102.960480 380.868256,105.062141 381.073212,107.450821 
	C385.782532,112.814804 390.438477,117.848740 394.901611,123.168793 
	C392.100739,125.495293 389.414093,127.444130 386.903198,129.597809 
	C383.292480,132.694809 379.809662,135.940933 375.932739,139.021118 
	C370.175812,133.880798 364.758423,128.842728 359.129517,123.618546 
	C355.785980,117.524483 350.678558,114.838005 344.223907,115.388893 
	C337.230042,115.985802 332.833099,120.281189 331.071228,127.665985 
	C330.039948,131.988571 329.211517,136.384521 328.692841,140.794647 
	C328.400787,143.278046 328.923340,145.857269 329.136963,148.709869 
	C334.476990,154.688614 339.759033,160.350800 344.876587,166.306046 
	C342.192719,168.678665 339.673248,170.758240 337.594513,172.474030 
	C340.563324,175.858704 343.247009,178.918289 346.038879,182.228485 
	C346.457184,182.649826 346.767303,182.820557 347.038879,182.994080 
	C347.000366,182.996857 346.995117,182.919785 347.132355,183.224823 
	C347.867401,183.671570 348.465240,183.813263 349.026672,183.945648 
	C348.990265,183.936356 349.012848,183.864700 348.911743,184.218414 
	C350.176300,186.213226 351.422516,187.973572 352.925079,189.477921 
	C389.218658,225.815613 425.541656,262.123932 461.847748,298.449127 
	C463.250610,299.852753 464.538635,301.371185 465.462128,302.892853 
	C463.080017,302.907562 461.115906,302.865540 458.981171,302.538208 
	C412.443268,255.853409 366.076508,209.453476 319.701416,163.061874 
	C319.236725,162.597000 318.661652,162.242477 317.904053,161.557709 
	C314.836456,161.185928 312.002838,161.009903 309.169403,161.013397 
	C291.787476,161.034897 274.405640,161.097031 256.556488,161.088837 
	C243.963776,160.971359 231.838364,160.910675 219.573761,160.579834 
	C208.066742,148.901794 196.715256,137.477463 185.302811,126.114357 
	C184.290131,125.106064 182.880478,124.496460 181.421906,123.505402 
	C177.054382,116.502769 172.316544,114.469032 163.786865,115.602127 
	C153.397507,105.002052 143.162170,94.678711 132.850998,84.431679 
	C132.107880,83.693176 130.811615,83.511276 129.513855,82.862411 
	C126.484062,74.673561 116.593056,72.219727 109.602852,75.678192 
	C102.168793,79.356255 98.592049,88.020332 102.184105,95.493645 
	C103.543457,98.321777 106.336021,100.461044 108.692024,103.169868 
	C109.296028,103.617088 109.683304,103.808754 110.035316,103.993065 
	C110.000046,103.985718 110.014931,103.915222 110.000031,104.265190 
	C111.274643,106.117958 112.473061,107.711617 113.867516,109.109749 
	C131.134216,126.421852 148.442398,143.692596 165.689774,161.023880 
	C166.908447,162.248489 167.733032,163.865280 168.380981,165.304520 
	C163.988251,163.164658 159.955414,161.019974 155.762512,158.594818 
	C152.503723,155.150711 149.505157,151.880173 146.276657,148.854996 
	C143.342712,146.105835 140.158737,143.623489 137.082794,140.667450 
	C131.080322,134.735458 125.669991,128.266983 118.929184,123.811363 
	C110.652565,118.340576 98.952751,125.323189 97.930305,135.265701 
	C97.253433,141.847778 99.903061,146.775955 105.180527,150.915039 
	C105.957077,151.438431 106.513535,151.719559 107.030334,151.994049 
	C106.990662,151.987396 106.998383,151.907303 106.987091,152.258179 
	C108.268661,154.112930 109.470161,155.708054 110.867798,157.107254 
	C142.293747,188.568085 173.739243,220.009384 205.192429,251.442978 
	C206.363388,252.613190 207.648865,253.668839 208.933533,255.253113 
	C208.951050,259.548767 208.916016,263.369232 208.589706,267.019897 
	C180.436874,239.032944 152.592651,211.198303 124.666222,183.446381 
	C123.156029,181.945602 120.956978,181.138016 118.999588,179.653000 
	C110.879639,174.334656 102.067314,171.707321 92.715630,172.577133 
	C89.705803,172.857086 86.260117,175.427795 84.225876,177.934235 
	C77.675331,186.005310 80.632744,195.496826 90.915344,201.885986 
	C91.767845,203.508865 92.656471,205.055206 93.873085,206.274231 
	C123.028206,235.486679 152.223755,264.658752 181.394089,293.856079 
	C184.327850,296.792542 187.147339,299.843170 189.553055,302.897919 
	C171.926514,302.969604 154.766769,302.983948 137.607025,302.998840 
	C93.458679,303.037201 49.310333,303.075867 4.986866,302.747803 
	C4.208108,299.198395 3.530292,296.027435 3.018529,292.829895 
	C2.282326,288.230072 1.666946,283.610901 0.999999,279.000000 
	C1.000000,264.645782 1.000000,250.291550 1.323196,235.207535 
	C2.858953,225.163177 3.515754,215.735184 5.389257,206.555511 
	C10.805082,180.019409 20.016352,154.864395 33.316303,131.157837 
	C48.995300,103.210732 69.492195,79.316948 93.895363,58.858154 
	C114.267097,41.779167 137.023010,28.340065 161.851120,18.614794 
	C181.587585,10.883944 201.876938,5.274472 223.008926,2.931646 
	C227.027939,2.486073 231.004074,1.653837 235.000000,1.000001 
z"/>
<path fill="#009246" opacity="1.000000" stroke="none" 
	d="
M459.151794,302.823547 
	C461.115906,302.865540 463.080017,302.907562 465.935181,302.950439 
	C480.813293,302.970459 494.800415,302.989594 508.862854,303.419373 
	C504.008820,333.284485 493.488464,360.827667 478.511261,386.434692 
	C462.689484,413.485748 442.323029,436.903381 417.764740,456.640137 
	C394.218201,475.563812 368.384033,490.285675 339.642609,499.445892 
	C325.763916,503.869232 311.371155,506.710419 297.156036,510.032135 
	C291.514252,511.350494 285.723114,512.029724 280.000000,513.000000 
	C272.645752,513.000000 265.291504,513.000000 257.445618,512.531738 
	C256.939850,470.394806 256.925781,428.726044 256.927795,386.988800 
	C256.943848,386.920288 256.929901,386.780212 257.400604,386.846313 
	C271.663116,386.934998 285.458832,386.778351 299.244476,387.081268 
	C303.821686,387.181824 305.132141,385.845001 305.102325,381.243805 
	C304.933350,355.157898 305.088898,329.069916 305.594208,302.988098 
	C337.806030,302.995178 369.557678,303.017487 401.309235,302.990540 
	C420.590118,302.974213 439.870941,302.881775 459.151794,302.823547 
z"/>
<path fill="#39B54B" opacity="1.000000" stroke="none" 
	d="
M256.911713,387.057312 
	C256.925781,428.726044 256.939850,470.394806 256.976990,512.531738 
	C249.645752,513.000000 242.291504,513.000000 234.281784,512.618225 
	C225.151779,511.093567 216.611603,510.303131 208.215561,508.738922 
	C186.686432,504.727936 166.037674,497.709320 146.329758,488.310455 
	C124.875366,478.078644 105.243088,464.898773 87.387169,449.108185 
	C66.696655,430.810883 49.271107,409.726196 35.277771,386.046844 
	C23.967089,366.906982 15.708649,346.232574 9.619339,324.812012 
	C7.605949,317.729462 6.618516,310.355255 5.161990,303.114380 
	C49.310333,303.075867 93.458679,303.037201 137.607025,302.998840 
	C154.766769,302.983948 171.926514,302.969604 190.013702,302.954132 
	C196.929840,302.962616 202.918518,302.971954 208.940903,303.450043 
	C208.988937,329.719696 209.096268,355.521210 208.926056,381.320892 
	C208.897675,385.621918 209.961517,387.098724 214.471939,387.022522 
	C228.614304,386.783478 242.764526,387.010712 256.911713,387.057312 
z"/>
<path fill="#01BED2" opacity="1.000000" stroke="none" 
	d="
M508.787537,303.008698 
	C494.800415,302.989594 480.813293,302.970459 466.353149,302.893738 
	C464.538635,301.371185 463.250610,299.852753 461.847748,298.449127 
	C425.541656,262.123932 389.218658,225.815613 352.925079,189.477921 
	C351.422516,187.973572 350.176300,186.213226 349.269653,184.260651 
	C354.534180,186.943192 359.220825,190.292221 365.428741,188.651505 
	C374.192963,186.335144 379.110718,177.188202 376.111938,168.721252 
	C373.020233,159.991928 363.983459,156.174652 355.459290,160.198730 
	C351.871246,161.892578 348.507019,164.060532 345.041046,166.012970 
	C339.759033,160.350800 334.476990,154.688614 329.589783,148.663513 
	C336.022858,147.414978 342.148926,146.914276 348.080597,145.561279 
	C359.399933,142.979324 363.500702,134.721680 359.341034,123.804672 
	C364.758423,128.842728 370.175812,133.880798 375.941040,139.348770 
	C383.034851,143.746307 389.477722,148.415726 396.607574,151.494232 
	C404.547607,154.922592 412.908783,150.191666 415.533295,142.046219 
	C418.101196,134.076553 413.875336,125.263893 405.763031,123.024765 
	C402.446411,122.109329 398.664612,122.879395 395.094421,122.882660 
	C390.438477,117.848740 385.782532,112.814804 381.514221,107.423958 
	C388.453369,106.038452 395.053345,105.245735 401.541901,103.911201 
	C407.371643,102.712158 411.589722,99.038101 412.607605,93.091072 
	C413.164520,89.837425 412.105927,86.307274 411.775818,82.901810 
	C413.468140,84.139450 415.355774,85.181099 416.823761,86.643890 
	C441.396088,111.128891 465.912170,135.670334 490.457245,160.182709 
	C491.857513,161.581116 493.399200,162.837860 495.374603,164.516357 
	C496.236053,165.425247 496.710510,165.934830 496.943542,166.537720 
	C503.769287,184.197525 508.208740,202.469986 510.908752,221.184921 
	C511.620911,226.121109 512.303711,231.061523 513.000000,236.000000 
	C513.000000,250.020889 513.000000,264.041779 512.619812,278.725525 
	C511.088959,287.261810 509.938232,295.135254 508.787537,303.008698 
M420.881653,172.255966 
	C411.565735,171.973297 403.165741,175.191803 393.325226,179.099030 
	C398.877716,186.322601 403.736603,192.933838 408.967651,199.236221 
	C410.206573,200.728882 412.603119,201.579834 414.624237,202.047913 
	C422.646912,203.905899 430.398102,198.995789 432.573547,190.934509 
	C434.729614,182.945038 430.325531,175.460770 420.881653,172.255966 
z"/>
<path fill="#FEFFFF" opacity="1.000000" stroke="none" 
	d="
M4.986866,302.747803 
	C6.618516,310.355255 7.605949,317.729462 9.619339,324.812012 
	C15.708649,346.232574 23.967089,366.906982 35.277771,386.046844 
	C49.271107,409.726196 66.696655,430.810883 87.387169,449.108185 
	C105.243088,464.898773 124.875366,478.078644 146.329758,488.310455 
	C166.037674,497.709320 186.686432,504.727936 208.215561,508.738922 
	C216.611603,510.303131 225.151779,511.093567 233.813156,512.618225 
	C156.406143,513.000000 78.812286,513.000000 1.000000,513.000000 
	C1.000000,435.312561 1.000000,357.624939 0.999999,279.468658 
	C1.666946,283.610901 2.282326,288.230072 3.018529,292.829895 
	C3.530292,296.027435 4.208108,299.198395 4.986866,302.747803 
z"/>
<path fill="#FFFFFF" opacity="1.000000" stroke="none" 
	d="
M508.862854,303.419373 
	C509.938232,295.135254 511.088959,287.261810 512.619812,279.194183 
	C513.000000,356.926880 513.000000,434.853760 513.000000,513.000000 
	C435.645905,513.000000 358.291626,513.000000 280.468658,513.000000 
	C285.723114,512.029724 291.514252,511.350494 297.156036,510.032135 
	C311.371155,506.710419 325.763916,503.869232 339.642609,499.445892 
	C368.384033,490.285675 394.218201,475.563812 417.764740,456.640137 
	C442.323029,436.903381 462.689484,413.485748 478.511261,386.434692 
	C493.488464,360.827667 504.008820,333.284485 508.862854,303.419373 
z"/>
<path fill="#FFFFFF" opacity="1.000000" stroke="none" 
	d="
M513.000000,235.531342 
	C512.303711,231.061523 511.620911,226.121109 510.908752,221.184921 
	C508.208740,202.469986 503.769287,184.197525 496.943542,166.537720 
	C496.710510,165.934830 496.236053,165.425247 495.705933,164.552002 
	C493.338348,158.433609 491.550568,152.436783 488.865967,146.872665 
	C478.911102,126.240089 466.526703,107.216400 451.472015,89.839638 
	C428.393463,63.201424 401.295441,41.876347 369.683685,26.363081 
	C347.470764,15.462223 324.093048,8.006585 299.652527,4.053202 
	C292.987091,2.975028 286.234711,2.433963 279.261108,1.323200 
	C356.927185,1.000000 434.854370,1.000000 513.000000,1.000000 
	C513.000000,79.020760 513.000000,157.041718 513.000000,235.531342 
z"/>
<path fill="#FFFFFF" opacity="1.000000" stroke="none" 
	d="
M234.531342,1.000001 
	C231.004074,1.653837 227.027939,2.486073 223.008926,2.931646 
	C201.876938,5.274472 181.587585,10.883944 161.851120,18.614794 
	C137.023010,28.340065 114.267097,41.779167 93.895363,58.858154 
	C69.492195,79.316948 48.995300,103.210732 33.316303,131.157837 
	C20.016352,154.864395 10.805082,180.019409 5.389257,206.555511 
	C3.515754,215.735184 2.858953,225.163177 1.323196,234.738876 
	C1.000000,157.072952 1.000000,79.145912 1.000000,1.000000 
	C78.687424,1.000000 156.375061,1.000000 234.531342,1.000001 
z"/>
<path fill="#00BED2" opacity="1.000000" stroke="none" 
	d="
M458.981171,302.538177 
	C439.870941,302.881775 420.590118,302.974213 401.309235,302.990540 
	C369.557678,303.017487 337.806030,302.995178 305.544556,302.521667 
	C305.034668,285.216705 305.034668,268.383698 305.034668,250.943649 
	C299.912201,250.943649 295.482697,250.943649 291.033386,250.480682 
	C291.026886,243.030594 291.040222,236.043442 291.518494,229.036942 
	C300.540833,229.017578 309.098267,229.017578 318.138092,229.017578 
	C318.138092,206.008194 318.138092,183.922318 318.138092,161.836441 
	C318.661652,162.242477 319.236725,162.597000 319.701416,163.061874 
	C366.076508,209.453476 412.443268,255.853409 458.981171,302.538177 
z"/>
<path fill="#607D8A" opacity="1.000000" stroke="none" 
	d="
M256.927795,386.988800 
	C242.764526,387.010712 228.614304,386.783478 214.471939,387.022522 
	C209.961517,387.098724 208.897675,385.621918 208.926056,381.320892 
	C209.096268,355.521210 208.988937,329.719696 208.987213,302.983734 
	C208.960205,290.429016 208.920593,278.809326 208.880981,267.189667 
	C208.916016,263.369232 208.951050,259.548767 208.987274,254.855469 
	C210.077438,252.991852 211.084579,251.280579 212.270813,251.145813 
	C215.789719,250.746033 219.379181,250.967514 223.413223,250.963196 
	C234.924469,250.985748 245.963562,250.991226 256.987091,251.020020 
	C256.971527,251.043350 256.948364,251.094452 256.959167,251.557068 
	C256.956635,296.939850 256.943268,341.860016 256.929901,386.780212 
	C256.929901,386.780212 256.943848,386.920288 256.927795,386.988800 
z"/>
<path fill="#01BED2" opacity="1.000000" stroke="none" 
	d="
M208.589706,267.019897 
	C208.920593,278.809326 208.960205,290.429016 208.953506,302.514984 
	C202.918518,302.971954 196.929840,302.962616 190.480499,302.897064 
	C187.147339,299.843170 184.327850,296.792542 181.394089,293.856079 
	C152.223755,264.658752 123.028206,235.486679 93.873085,206.274231 
	C92.656471,205.055206 91.767845,203.508865 91.287483,202.000702 
	C99.168625,203.763199 104.798195,201.113632 108.985565,195.182495 
	C112.487877,190.221649 115.724373,185.073166 119.078583,180.007767 
	C120.956978,181.138016 123.156029,181.945602 124.666222,183.446381 
	C152.592651,211.198303 180.436874,239.032944 208.589706,267.019897 
z"/>
<path fill="#546E7A" opacity="1.000000" stroke="none" 
	d="
M317.904053,161.557709 
	C318.138092,183.922318 318.138092,206.008194 318.138092,229.017578 
	C309.098267,229.017578 300.540833,229.017578 291.047119,229.018250 
	C279.056458,228.980698 268.002167,228.942490 256.958740,228.441772 
	C256.987671,205.701370 257.005737,183.423492 257.023773,161.145630 
	C274.405640,161.097031 291.787476,161.034897 309.169403,161.013397 
	C312.002838,161.009903 314.836456,161.185928 317.904053,161.557709 
z"/>
<path fill="#607D8A" opacity="1.000000" stroke="none" 
	d="
M256.556488,161.088837 
	C257.005737,183.423492 256.987671,205.701370 256.970367,228.467850 
	C256.971130,228.956467 257.001984,229.002625 256.533173,228.996002 
	C245.022781,229.010956 233.981201,229.032516 222.475098,229.035095 
	C214.851654,229.009735 207.687271,228.835846 200.536057,229.067734 
	C196.961060,229.183624 196.005173,227.867432 196.045029,224.458145 
	C196.171494,213.640900 196.003906,202.820206 195.996201,191.674698 
	C196.012817,190.911957 195.983231,190.475372 196.008118,189.570282 
	C196.062576,179.886383 196.062576,170.670990 196.062576,160.849976 
	C204.519928,160.849976 212.116425,160.849976 219.712936,160.849976 
	C231.838364,160.910675 243.963776,160.971359 256.556488,161.088837 
z"/>
<path fill="#03BFD3" opacity="1.000000" stroke="none" 
	d="
M195.949997,192.000854 
	C196.003906,202.820206 196.171494,213.640900 196.045029,224.458145 
	C196.005173,227.867432 196.961060,229.183624 200.536057,229.067734 
	C207.687271,228.835846 214.851654,229.009735 222.497223,229.497864 
	C222.969589,236.968460 222.955338,243.957275 222.941071,250.946106 
	C219.379181,250.967514 215.789719,250.746033 212.270813,251.145813 
	C211.084579,251.280579 210.077438,252.991852 208.934723,254.380249 
	C207.648865,253.668839 206.363388,252.613190 205.192429,251.442978 
	C173.739243,220.009384 142.293747,188.568085 110.867798,157.107254 
	C109.470161,155.708054 108.268661,154.112930 107.382874,152.303741 
	C112.258018,151.367111 117.048500,151.540039 121.115913,149.909378 
	C126.724892,147.660690 131.788040,144.050507 137.084991,141.023514 
	C140.158737,143.623489 143.342712,146.105835 146.276657,148.854996 
	C149.505157,151.880173 152.503723,155.150711 155.393066,158.596329 
	C147.578949,157.788010 141.350372,160.926987 138.389816,167.341797 
	C135.607880,173.369629 137.085449,180.627487 142.000626,185.078110 
	C147.270615,189.849991 153.739151,190.564545 160.283554,186.325623 
	C166.090912,182.564117 171.469727,178.141006 177.398071,174.019836 
	C178.904099,174.590057 180.293869,174.902847 181.154755,175.751923 
	C185.833237,180.366211 190.381226,185.112808 194.992340,190.128876 
	C195.323685,190.962875 195.636841,191.481857 195.949997,192.000854 
z"/>
<path fill="#04BFD3" opacity="1.000000" stroke="none" 
	d="
M194.974152,189.813858 
	C190.381226,185.112808 185.833237,180.366211 181.154755,175.751923 
	C180.293869,174.902847 178.904099,174.590057 177.419983,173.667847 
	C174.301300,170.637192 171.521088,167.968445 168.740875,165.299698 
	C167.733032,163.865280 166.908447,162.248489 165.689774,161.023880 
	C148.442398,143.692596 131.134216,126.421852 113.867516,109.109749 
	C112.473061,107.711617 111.274643,106.117958 110.417343,104.300781 
	C118.404251,105.153572 125.958939,106.320740 134.835693,107.692162 
	C132.943985,98.492973 131.358261,90.781776 129.772537,83.070580 
	C130.811615,83.511276 132.107880,83.693176 132.850998,84.431679 
	C143.162170,94.678711 153.397507,105.002052 163.472137,115.743530 
	C150.859940,120.911568 149.723297,136.848251 159.006012,142.596558 
	C167.070374,147.590408 176.457703,147.924057 186.909149,148.342361 
	C185.018417,139.474945 183.336807,131.588318 181.655197,123.701683 
	C182.880478,124.496460 184.290131,125.106064 185.302811,126.114357 
	C196.715256,137.477463 208.066742,148.901794 219.573761,160.579834 
	C212.116425,160.849976 204.519928,160.849976 196.062576,160.849976 
	C196.062576,170.670990 196.062576,179.886383 195.760254,189.527313 
	C195.296661,189.906509 195.135406,189.860184 194.974152,189.813858 
z"/>
<path fill="#FBFEFF" opacity="1.000000" stroke="none" 
	d="
M168.380981,165.304520 
	C171.521088,167.968445 174.301300,170.637192 177.059616,173.657928 
	C171.469727,178.141006 166.090912,182.564117 160.283554,186.325623 
	C153.739151,190.564545 147.270615,189.849991 142.000626,185.078110 
	C137.085449,180.627487 135.607880,173.369629 138.389816,167.341797 
	C141.350372,160.926987 147.578949,157.788010 155.553131,158.876801 
	C159.955414,161.019974 163.988251,163.164658 168.380981,165.304520 
z"/>
<path fill="#E3E6E6" opacity="1.000000" stroke="none" 
	d="
M394.901611,123.168793 
	C398.664612,122.879395 402.446411,122.109329 405.763031,123.024765 
	C413.875336,125.263893 418.101196,134.076553 415.533295,142.046219 
	C412.908783,150.191666 404.547607,154.922592 396.607574,151.494232 
	C389.477722,148.415726 383.034851,143.746307 376.280579,139.451050 
	C379.809662,135.940933 383.292480,132.694809 386.903198,129.597809 
	C389.414093,127.444130 392.100739,125.495293 394.901611,123.168793 
z"/>
<path fill="#E4E6E6" opacity="1.000000" stroke="none" 
	d="
M359.129517,123.618546 
	C363.500702,134.721680 359.399933,142.979324 348.080597,145.561279 
	C342.148926,146.914276 336.022858,147.414978 329.531738,148.346954 
	C328.923340,145.857269 328.400787,143.278046 328.692841,140.794647 
	C329.211517,136.384521 330.039948,131.988571 331.071228,127.665985 
	C332.833099,120.281189 337.230042,115.985802 344.223907,115.388893 
	C350.678558,114.838005 355.785980,117.524483 359.129517,123.618546 
z"/>
<path fill="#E3E5E6" opacity="1.000000" stroke="none" 
	d="
M344.876587,166.306030 
	C348.507019,164.060532 351.871246,161.892578 355.459290,160.198730 
	C363.983459,156.174652 373.020233,159.991928 376.111938,168.721252 
	C379.110718,177.188202 374.192963,186.335144 365.428741,188.651505 
	C359.220825,190.292221 354.534180,186.943192 349.370728,183.906937 
	C349.012848,183.864700 348.990265,183.936356 348.910400,183.623825 
	C348.218719,183.180801 347.606934,183.050293 346.995117,182.919785 
	C346.995117,182.919785 347.000366,182.996857 347.058289,182.668716 
	C346.721039,182.219666 346.325836,182.098755 345.930664,181.977859 
	C343.247009,178.918289 340.563324,175.858704 337.594513,172.474030 
	C339.673248,170.758240 342.192719,168.678665 344.876587,166.306030 
z"/>
<path fill="#FCFEFF" opacity="1.000000" stroke="none" 
	d="
M129.513855,82.862411 
	C131.358261,90.781776 132.943985,98.492973 134.835693,107.692162 
	C125.958939,106.320740 118.404251,105.153572 110.432243,103.950821 
	C110.014931,103.915222 110.000046,103.985718 109.900345,103.664291 
	C109.358871,103.200012 108.917091,103.057159 108.475304,102.914307 
	C106.336021,100.461044 103.543457,98.321777 102.184105,95.493645 
	C98.592049,88.020332 102.168793,79.356255 109.602852,75.678192 
	C116.593056,72.219727 126.484062,74.673561 129.513855,82.862411 
z"/>
<path fill="#FDFEFF" opacity="1.000000" stroke="none" 
	d="
M118.999588,179.653000 
	C115.724373,185.073166 112.487877,190.221649 108.985565,195.182495 
	C104.798195,201.113632 99.168625,203.763199 91.476410,201.771667 
	C80.632744,195.496826 77.675331,186.005310 84.225876,177.934235 
	C86.260117,175.427795 89.705803,172.857086 92.715630,172.577133 
	C102.067314,171.707321 110.879639,174.334656 118.999588,179.653000 
z"/>
<path fill="#FCFEFE" opacity="1.000000" stroke="none" 
	d="
M181.421906,123.505402 
	C183.336807,131.588318 185.018417,139.474945 186.909149,148.342361 
	C176.457703,147.924057 167.070374,147.590408 159.006012,142.596558 
	C149.723297,136.848251 150.859940,120.911568 163.607635,116.038918 
	C172.316544,114.469032 177.054382,116.502769 181.421906,123.505402 
z"/>
<path fill="#FDFEFF" opacity="1.000000" stroke="none" 
	d="
M137.082794,140.667450 
	C131.788040,144.050507 126.724892,147.660690 121.115913,149.909378 
	C117.048500,151.540039 112.258018,151.367111 107.394165,151.952850 
	C106.998383,151.907303 106.990662,151.987396 106.859283,151.720886 
	C106.138741,151.193863 105.549583,150.933334 104.960434,150.672806 
	C99.903061,146.775955 97.253433,141.847778 97.930305,135.265701 
	C98.952751,125.323189 110.652565,118.340576 118.929184,123.811363 
	C125.669991,128.266983 131.080322,134.735458 137.082794,140.667450 
z"/>
<path fill="#E4E6E6" opacity="1.000000" stroke="none" 
	d="
M411.515503,82.719666 
	C412.105927,86.307274 413.164520,89.837425 412.607605,93.091072 
	C411.589722,99.038101 407.371643,102.712158 401.541901,103.911201 
	C395.053345,105.245735 388.453369,106.038452 381.460876,107.093910 
	C380.868256,105.062141 380.378265,102.960480 380.633484,100.953575 
	C381.217773,96.359421 382.101349,91.799034 382.981567,87.247787 
	C384.345795,80.193977 388.329193,75.317802 395.597626,74.287064 
	C402.535126,73.303246 407.832642,76.373634 411.515503,82.719666 
z"/>
<path fill="#01BED2" opacity="1.000000" stroke="none" 
	d="
M347.132355,183.224823 
	C347.606934,183.050293 348.218719,183.180801 348.946777,183.633118 
	C348.465240,183.813263 347.867401,183.671570 347.132355,183.224823 
z"/>
<path fill="#03BFD3" opacity="1.000000" stroke="none" 
	d="
M105.180527,150.915039 
	C105.549583,150.933334 106.138741,151.193863 106.898949,151.727539 
	C106.513535,151.719559 105.957077,151.438431 105.180527,150.915039 
z"/>
<path fill="#01BED2" opacity="1.000000" stroke="none" 
	d="
M346.038879,182.228485 
	C346.325836,182.098755 346.721039,182.219666 347.096802,182.665924 
	C346.767303,182.820557 346.457184,182.649826 346.038879,182.228485 
z"/>
<path fill="#04BFD3" opacity="1.000000" stroke="none" 
	d="
M108.692024,103.169861 
	C108.917091,103.057159 109.358871,103.200012 109.935623,103.671646 
	C109.683304,103.808754 109.296028,103.617088 108.692024,103.169861 
z"/>
<path fill="#546E7A" opacity="1.000000" stroke="none" 
	d="
M257.400604,386.846313 
	C256.943268,341.860016 256.956635,296.939850 257.432251,251.525848 
	C268.947388,251.002563 280.000305,250.973099 291.053192,250.943649 
	C295.482697,250.943649 299.912201,250.943649 305.034668,250.943649 
	C305.034668,268.383698 305.034668,285.216705 305.084320,302.516174 
	C305.088898,329.069916 304.933350,355.157898 305.102325,381.243805 
	C305.132141,385.845001 303.821686,387.181824 299.244476,387.081268 
	C285.458832,386.778351 271.663116,386.934998 257.400604,386.846313 
z"/>
<path fill="#E3E5E6" opacity="1.000000" stroke="none" 
	d="
M421.283447,172.343475 
	C430.325531,175.460770 434.729614,182.945038 432.573547,190.934509 
	C430.398102,198.995789 422.646912,203.905899 414.624237,202.047913 
	C412.603119,201.579834 410.206573,200.728882 408.967651,199.236221 
	C403.736603,192.933838 398.877716,186.322601 393.325226,179.099030 
	C403.165741,175.191803 411.565735,171.973297 421.283447,172.343475 
z"/>
<path fill="#37474F" opacity="1.000000" stroke="none" 
	d="
M291.033386,250.480682 
	C280.000305,250.973099 268.947388,251.002563 257.421448,251.063232 
	C256.948364,251.094452 256.971527,251.043350 256.981201,250.551819 
	C256.994598,243.041061 256.998291,236.021835 257.001984,229.002625 
	C257.001984,229.002625 256.971130,228.956467 256.959473,228.930389 
	C268.002167,228.942490 279.056458,228.980698 290.582153,229.037598 
	C291.040222,236.043442 291.026886,243.030594 291.033386,250.480682 
z"/>
<path fill="#455A64" opacity="1.000000" stroke="none" 
	d="
M256.533173,228.996002 
	C256.998291,236.021835 256.994598,243.041061 256.996765,250.528488 
	C245.963562,250.991226 234.924469,250.985748 223.413239,250.963196 
	C222.955338,243.957275 222.969589,236.968460 222.961731,229.516846 
	C233.981201,229.032516 245.022781,229.010956 256.533173,228.996002 
z"/>
<path fill="#2FCDE3" opacity="1.000000" stroke="none" 
	d="
M194.992340,190.128876 
	C195.135406,189.860184 195.296661,189.906509 195.705780,189.995819 
	C195.983231,190.475372 196.012817,190.911957 195.996201,191.674698 
	C195.636841,191.481857 195.323685,190.962875 194.992340,190.128876 
z"/>
</svg>